<svg data-name="icon/action/autorenew_circle_24px" xmlns="http://www.w3.org/2000/svg" width="24" height="24" viewBox="0 0 24 24">
    <path style="fill:none" d="M0 0h24v24H0z"/>
    <path data-name="↳Color" d="M10 20a10 10 0 1 1 10-10 10.011 10.011 0 0 1-10 10zm0-7.75-3 3 3 3V16a5.989 5.989 0 0 0 5.07-9.2l-1.095 1.1A4.493 4.493 0 0 1 10 14.5zm0-10.5V4a5.989 5.989 0 0 0-5.07 9.2l1.094-1.1A4.413 4.413 0 0 1 5.5 10 4.505 4.505 0 0 1 10 5.5v2.25l3-3z" transform="translate(2 2)" style="fill:#fa0"/>
</svg>
